<svg aria-hidden="true" style="position: absolute; width: 0; height: 0; overflow: hidden;" version="1.1"
  xmlns="http://www.w3.org/2000/svg"
  xmlns:xlink="http://www.w3.org/1999/xlink">
  <defs>
    <!-- BELL -->
    <symbol viewBox="0 0 256 256" id="icon-bell">
      <path fill="#BEBEBE" d="M220.8 175.9c-5.9-10.2-13-29.6-13-63.9v-7.1c0-44.3-35.5-80.6-79.2-80.9h-.6a79.9 79.9 0 0 0-79.8 80v8c0 34.3-7.1 53.7-13 63.9A16 16 0 0 0 49 200h39a40 40 0 0 0 80 0h39a15.9 15.9 0 0 0 13.9-8a16.2 16.2 0 0 0-.1-16.1ZM128 224a24.1 24.1 0 0 1-24-24h48a24.1 24.1 0 0 1-24 24Zm-79-40c6.9-12 15.2-34.1 15.2-72v-8A63.8 63.8 0 0 1 128 40h.5c34.9.2 63.3 29.4 63.3 64.9v7.1c0 37.9 8.3 60 15.2 72Z">
      </path>
    </symbol>

    <!-- CAMERA -->
    <symbol viewBox="0 0 24 24" id="icon-camera">
      <path fill="#BEBEBE" d="M12 18q2.075 0 3.538-1.462Q17 15.075 17 13q0-2.075-1.462-3.538Q14.075 8 12 8Q9.925 8 8.463 9.462Q7 10.925 7 13q0 2.075 1.463 3.538Q9.925 18 12 18Zm0-2q-1.25 0-2.125-.875T9 13q0-1.25.875-2.125T12 10q1.25 0 2.125.875T15 13q0 1.25-.875 2.125T12 16Zm6-6q.425 0 .712-.288Q19 9.425 19 9t-.288-.713Q18.425 8 18 8t-.712.287Q17 8.575 17 9t.288.712Q17.575 10 18 10ZM4 21q-.825 0-1.412-.587Q2 19.825 2 19V7q0-.825.588-1.412Q3.175 5 4 5h3.15L8.7 3.325q.15-.15.337-.238Q9.225 3 9.425 3h5.15q.2 0 .388.087q.187.088.337.238L16.85 5H20q.825 0 1.413.588Q22 6.175 22 7v12q0 .825-.587 1.413Q20.825 21 20 21Zm16-2V7h-4.05l-1.825-2h-4.25L8.05 7H4v12Zm-8-6Z"></path>
    </symbol>
  </defs>
</svg>



