<svg aria-hidden="true" style="position: absolute; width: 0; height: 0; overflow: hidden;" version="1.1"
  xmlns="http://www.w3.org/2000/svg"
  xmlns:xlink="http://www.w3.org/1999/xlink">
  <defs>
    <!-- BELL -->
    <symbol viewBox="0 0 256 256" id="icon-bell">
      <path fill="#BEBEBE" d="M220.8 175.9c-5.9-10.2-13-29.6-13-63.9v-7.1c0-44.3-35.5-80.6-79.2-80.9h-.6a79.9 79.9 0 0 0-79.8 80v8c0 34.3-7.1 53.7-13 63.9A16 16 0 0 0 49 200h39a40 40 0 0 0 80 0h39a15.9 15.9 0 0 0 13.9-8a16.2 16.2 0 0 0-.1-16.1ZM128 224a24.1 24.1 0 0 1-24-24h48a24.1 24.1 0 0 1-24 24Zm-79-40c6.9-12 15.2-34.1 15.2-72v-8A63.8 63.8 0 0 1 128 40h.5c34.9.2 63.3 29.4 63.3 64.9v7.1c0 37.9 8.3 60 15.2 72Z">
      </path>
    </symbol>

    <!-- CAMERA -->
    <symbol viewBox="0 0 24 24" id="icon-camera">
      <path fill="#303030" d="M12 18q2.075 0 3.538-1.462Q17 15.075 17 13q0-2.075-1.462-3.538Q14.075 8 12 8Q9.925 8 8.463 9.462Q7 10.925 7 13q0 2.075 1.463 3.538Q9.925 18 12 18Zm0-2q-1.25 0-2.125-.875T9 13q0-1.25.875-2.125T12 10q1.25 0 2.125.875T15 13q0 1.25-.875 2.125T12 16Zm6-6q.425 0 .712-.288Q19 9.425 19 9t-.288-.713Q18.425 8 18 8t-.712.287Q17 8.575 17 9t.288.712Q17.575 10 18 10ZM4 21q-.825 0-1.412-.587Q2 19.825 2 19V7q0-.825.588-1.412Q3.175 5 4 5h3.15L8.7 3.325q.15-.15.337-.238Q9.225 3 9.425 3h5.15q.2 0 .388.087q.187.088.337.238L16.85 5H20q.825 0 1.413.588Q22 6.175 22 7v12q0 .825-.587 1.413Q20.825 21 20 21Zm16-2V7h-4.05l-1.825-2h-4.25L8.05 7H4v12Zm-8-6Z"></path>
    </symbol>

    <!-- DISK -->
    <symbol viewBox="0 0 448 512" id="icon-disk">
      <path fill="#ffffff" d="m433.941 129.941l-83.882-83.882A48 48 0 0 0 316.118 32H48C21.49 32 0 53.49 0 80v352c0 26.51 21.49 48 48 48h352c26.51 0 48-21.49 48-48V163.882a48 48 0 0 0-14.059-33.941zM272 80v80H144V80h128zm122 352H54a6 6 0 0 1-6-6V86a6 6 0 0 1 6-6h42v104c0 13.255 10.745 24 24 24h176c13.255 0 24-10.745 24-24V83.882l78.243 78.243a6 6 0 0 1 1.757 4.243V426a6 6 0 0 1-6 6zM224 232c-48.523 0-88 39.477-88 88s39.477 88 88 88s88-39.477 88-88s-39.477-88-88-88zm0 128c-22.056 0-40-17.944-40-40s17.944-40 40-40s40 17.944 40 40s-17.944 40-40 40z"></path>
    </symbol>

    <!-- SEARCH -->
    <symbol viewBox="0 0 24 24" id="icon-search">
      <path fill="#888888" d="m18.9 20.3l-5.6-5.6q-.75.6-1.725.95Q10.6 16 9.5 16q-2.725 0-4.612-1.887Q3 12.225 3 9.5q0-2.725 1.888-4.613Q6.775 3 9.5 3t4.613 1.887Q16 6.775 16 9.5q0 1.1-.35 2.075q-.35.975-.95 1.725l5.625 5.625q.275.275.275.675t-.3.7q-.275.275-.7.275q-.425 0-.7-.275ZM9.5 14q1.875 0 3.188-1.312Q14 11.375 14 9.5q0-1.875-1.312-3.188Q11.375 5 9.5 5Q7.625 5 6.312 6.312Q5 7.625 5 9.5q0 1.875 1.312 3.188Q7.625 14 9.5 14Z"></path>
    </symbol>

    <!-- SAD  -->
    <symbol viewBox="0 0 496 512" id="icon-sad">
      <path fill="#303030" d="M248 8C111 8 0 119 0 256s111 248 248 248s248-111 248-248S385 8 248 8zm0 448c-110.3 0-200-89.7-200-200S137.7 56 248 56s200 89.7 200 200s-89.7 200-200 200zm8-152c-13.2 0-24 10.8-24 24s10.8 24 24 24c23.8 0 46.3 10.5 61.6 28.8c8.1 9.8 23.2 11.9 33.8 3.1c10.2-8.5 11.6-23.6 3.1-33.8C330 320.8 294.1 304 256 304zm-88-64c17.7 0 32-14.3 32-32s-14.3-32-32-32s-32 14.3-32 32s14.3 32 32 32zm160-64c-17.7 0-32 14.3-32 32s14.3 32 32 32s32-14.3 32-32s-14.3-32-32-32zm-165.6 98.8C151 290.1 126 325.4 126 342.9c0 22.7 18.8 41.1 42 41.1s42-18.4 42-41.1c0-17.5-25-52.8-36.4-68.1c-2.8-3.7-8.4-3.7-11.2 0z"></path>
    </symbol>

    <!-- BELL -->
    <symbol viewBox="0 0 24 24" id="icon-bell">
      <path fill="#888888" d="M2 10q0-2.2.888-4.162q.887-1.963 2.537-3.388l1.425 1.4Q5.5 5.025 4.75 6.612Q4 8.2 4 10Zm18 0q0-1.8-.75-3.388q-.75-1.587-2.1-2.762l1.425-1.4q1.65 1.425 2.538 3.388Q22 7.8 22 10ZM4 19v-2h2v-7q0-2.075 1.25-3.688Q8.5 4.7 10.5 4.2V2h3v2.2q2 .5 3.25 2.112Q18 7.925 18 10v7h2v2Zm8-7.5ZM12 22q-.825 0-1.412-.587Q10 20.825 10 20h4q0 .825-.587 1.413Q12.825 22 12 22Zm-4-5h8v-7q0-1.65-1.175-2.825Q13.65 6 12 6q-1.65 0-2.825 1.175Q8 8.35 8 10Z"></path>
    </symbol>
  </defs>
</svg>



